<svg xmlns="http://www.w3.org/2000/svg" viewBox="0 0 69.45 59.05"><defs><style>.cls-1{fill:#c9a35a;}</style></defs><g id="Capa_2" data-name="Capa 2"><g id="iconos"><path className="cls-1" d="M52.51,54.53A11.67,11.67,0,1,0,40.84,42.86,11.68,11.68,0,0,0,52.51,54.53Zm4.16-12.86h2.45a1,1,0,0,1,0,2H56.67a1,1,0,0,1,0-2Zm-5.16-8.34a1,1,0,0,1,2,0V38.5a1,1,0,0,1-2,0Zm1,7.3a2.24,2.24,0,1,1-2.23,2.23A2.23,2.23,0,0,1,52.51,40.63Z"/><path className="cls-1" d="M0,52.3a6.75,6.75,0,0,0,6.75,6.75h56a6.75,6.75,0,0,0,6.75-6.75V16.48H0ZM52.51,29.2A13.67,13.67,0,1,1,38.84,42.86,13.68,13.68,0,0,1,52.51,29.2Z"/><rect className="cls-1" x="21.71" width="26.02" height="7.97"/><path className="cls-1" d="M16.71,0h-10A6.75,6.75,0,0,0,0,6.75V8H16.71Z"/><path className="cls-1" d="M62.7,0h-10V8H69.45V6.75A6.75,6.75,0,0,0,62.7,0Z"/></g></g></svg>