<svg xmlns="http://www.w3.org/2000/svg" viewBox="0 0 44.39 61.06"><defs><style>.cls-1{fill:#c9a35a;}.cls-2{fill:#fff;}</style></defs><g id="Capa_2" data-name="Capa 2"><g id="iconos"><polygon className="cls-1" points="22.5 22.18 23.82 22.18 23.82 18.53 22.5 16.93 22.5 22.18"/><polygon className="cls-1" points="20.51 12.49 21.84 14.08 21.84 9.26 20.51 9.26 20.51 12.49"/><path className="cls-1" d="M28.74,0H13.13A1.23,1.23,0,0,0,11.9,1.23V29.74A1.23,1.23,0,0,0,13.13,31H31.21a1.23,1.23,0,0,0,1.23-1.23V3.6ZM25.19,12.71H23.82V9.26H22.5v5.63l2.26,2.72a1.74,1.74,0,0,1,.43,1.14V22.3a1,1,0,0,1-1.08,1.08H22.5v1.31a.34.34,0,0,1-.67,0V23.38H20.25a1.09,1.09,0,0,1-.79-.3,1.06,1.06,0,0,1-.31-.78V18.41h1.36v3.77h1.32V16.12l-2.24-2.71a1.79,1.79,0,0,1-.44-1.16V9.14a1.06,1.06,0,0,1,.31-.78,1.09,1.09,0,0,1,.79-.3h1.58V6.28a.34.34,0,0,1,.67,0V8.06h1.61a1,1,0,0,1,1.08,1.08Z"/><polyline className="cls-1" points="2.18 27.15 3.29 27.85 40.7 27.5 41.22 27.15"/><path className="cls-1" d="M23.34,43a1.49,1.49,0,0,1-.84.26,1.51,1.51,0,0,1-.79-.23L0,29.3V58.93a2.13,2.13,0,0,0,2.13,2.13H42.26a2.13,2.13,0,0,0,2.13-2.13V29.28a1.9,1.9,0,0,0-.11-.63l-.06.05Z"/><polygon className="cls-1" points="40.7 27.5 3.29 27.85 22.47 39.97 40.7 27.5"/><polygon className="cls-2" points="43.38 27.47 43.38 27.47 43.38 27.47 43.38 27.47"/><polygon className="cls-2" points="0.39 27.86 0.39 27.86 0.39 27.86 0.39 27.86"/></g></g></svg>