<svg xmlns="http://www.w3.org/2000/svg" viewBox="0 0 59.29 59.29"><defs><style>.cls-1{fill:none;stroke:#c9a35a;stroke-miterlimit:10;stroke-width:3px;}.cls-2{fill:#c9a35a;}</style></defs><g id="Capa_2" data-name="Capa 2"><g id="iconos"><path className="cls-1" d="M57.79,29.65A28.16,28.16,0,0,1,33.37,57.54l-.94.11a25.49,25.49,0,0,1-2.78.14,27.47,27.47,0,0,1-5.17-.48A28.14,28.14,0,1,1,57.79,29.65Z"/><path className="cls-2" d="M35.09,23.28h3.13V16.7H32.53q-8.05,0-8,7v4.09h-3.2v6.71h3.2V57.31a27.47,27.47,0,0,0,5.17.48,25.49,25.49,0,0,0,2.78-.14l.94-.11v-23h4.85V27.82H33.37V24.88C33.37,23.82,33.94,23.28,35.09,23.28Z"/></g></g></svg>