<svg xmlns="http://www.w3.org/2000/svg" viewBox="0 0 42.55 57.54"><defs><style>.cls-1{fill:#c9a35a;}</style></defs><g id="Capa_2" data-name="Capa 2"><g id="iconos"><path className="cls-1" d="M26.44,26.72v0h-.62v0c-14.3.37-16,13.33-16.11,18.17a1.76,1.76,0,0,0,1.76,1.81H40.79a1.76,1.76,0,0,0,1.76-1.81C42.42,40.05,40.74,27.09,26.44,26.72Z"/><circle className="cls-1" cx="26.13" cy="11.4" r="11.4"/><path className="cls-1" d="M20.31,55.72c-.86,1.25-3.12,1.89-4.77,1.81-1.12-.05-2.56-.24-6.74-3.43C3.47,50,1.22,42.92,1,42.44s-1.57-3.87-.8-6.79a6.71,6.71,0,0,1,3.41-4.41,3,3,0,0,1,2.28-.18c.25.06.47.14.67.2.6.18.89.3,1,1.35.18,1.32.6,4.56.66,4.9a1.24,1.24,0,0,1-.2,1.13,3.72,3.72,0,0,1-.91.76c-.39.27-.75.46-1.15.75s-.76.51-.57,1.2a18.49,18.49,0,0,0,2.22,5,15.51,15.51,0,0,0,4,4.22,1.34,1.34,0,0,0,1.5.16c.58-.37,1.36-1,2.15-1.69A1.17,1.17,0,0,1,16.9,49c.5.34,3,2.55,3.55,3s.88.71,1,1A5.36,5.36,0,0,1,20.31,55.72Z"/></g></g></svg>