<svg xmlns="http://www.w3.org/2000/svg" viewBox="0 0 69.58 58.56"><defs><style>.cls-1{fill:none;stroke:#c9a35a;stroke-linecap:round;stroke-miterlimit:10;stroke-width:3px;}.cls-2{fill:#c9a35a;}</style></defs><g id="Capa_2" data-name="Capa 2"><g id="iconos"><path className="cls-1" d="M57.19,18.67c6.61,3.87,10.89,10.09,10.89,17.11A18.32,18.32,0,0,1,63.3,47.9a.61.61,0,0,0-.14.53L65,56.31a.61.61,0,0,1-.94.64l-6-4.16a.59.59,0,0,0-.66,0,31.44,31.44,0,0,1-16.09,4.28c-11,0-20.54-5.32-24.63-12.9"/><path className="cls-2" d="M26.78,0C12,0,0,9.52,0,21.26A18.32,18.32,0,0,0,4.78,33.38a.62.62,0,0,1,.14.54L3.08,41.78a.61.61,0,0,0,.94.65l6-4.16a.59.59,0,0,1,.66,0,31.42,31.42,0,0,0,16.1,4.27c14.79,0,26.78-9.52,26.78-21.26S41.57,0,26.78,0ZM15.93,24.39A3.12,3.12,0,1,1,19,21.27,3.12,3.12,0,0,1,15.93,24.39Zm10.85,0a3.12,3.12,0,1,1,3.12-3.12A3.12,3.12,0,0,1,26.78,24.39Zm10.85,0a3.12,3.12,0,1,1,3.12-3.12A3.12,3.12,0,0,1,37.63,24.39Z"/></g></g></svg>