<svg xmlns="http://www.w3.org/2000/svg" viewBox="0 0 59.24 59.23"><defs><style>.cls-1{fill:#c9a35a;}</style></defs><g id="Capa_2" data-name="Capa 2"><g id="iconos"><path className="cls-1" d="M46.39,54c-1.31-6.48-5.21-14.43-16.46-14.74H29.3C18.06,39.6,14.16,47.55,12.85,54a29.64,29.64,0,0,0,33.54,0Z"/><path className="cls-1" d="M59.24,29.62A29.62,29.62,0,1,0,10.26,52c1.7-6.67,6.12-14.72,17.5-15.66V36.3l1.5,0h2.21v.1c11.38.94,15.8,9,17.5,15.66A29.58,29.58,0,0,0,59.24,29.62Zm-29.62,5C21.56,34.61,15,27.8,15,19.43S21.56,4.25,29.62,4.25s14.62,6.81,14.62,15.18S37.68,34.61,29.62,34.61Z"/><path className="cls-1" d="M29.62,7.25C23.21,7.25,18,12.72,18,19.43s5.21,12.18,11.62,12.18,11.62-5.47,11.62-12.18S36,7.25,29.62,7.25Z"/></g></g></svg>