<svg xmlns="http://www.w3.org/2000/svg" viewBox="0 0 28.77 49.84"><defs><style>.cls-1{fill:#c9a35a;}.cls-2{fill:#fff;}.cls-3,.cls-4{fill:none;stroke:#fff;stroke-miterlimit:10;}.cls-4{stroke-linecap:round;}</style></defs><g id="Capa_2" data-name="Capa 2"><g id="iconos"><rect className="cls-1" width="28.77" height="49.84" rx="1.79"/><ellipse className="cls-2" cx="14.35" cy="2.78" rx="1.27" ry="1.17"/><path className="cls-3" d="M5.63,46.36h17.1a2.15,2.15,0,0,0,2.14-2.15v-38a1.8,1.8,0,0,0-1.8-1.8h-6.3l-1.08.74a2.36,2.36,0,0,1-2.73,0l-1-.69H5.63a1.81,1.81,0,0,0-1.8,1.8V44.55A1.81,1.81,0,0,0,5.63,46.36Z"/><line className="cls-4" x1="16.62" y1="16.23" x2="6.33" y2="29.94"/><line className="cls-4" x1="20.12" y1="20.02" x2="11.41" y2="31.63"/><line className="cls-4" x1="21.68" y1="25.02" x2="16.12" y2="32.24"/></g></g></svg>